SplineFontDB: 3.2
FontName: MedievalMystery-Regular
FullName: Medieval Mystery Regular
FamilyName: Medieval Mystery
Weight: Book
Copyright: Copyright (c) 2022 by Vladimir Nikolic. All rights reserved.
Version: 1.000
ItalicAngle: 0
UnderlinePosition: -100
UnderlineWidth: 50
Ascent: 750
Descent: 250
InvalidEm: 0
sfntRevision: 0x00010000
woffMajor: 0
woffMinor: 0
LayerCount: 2
Layer: 0 1 "Back" 1
Layer: 1 1 "Fore" 0
XUID: [1021 24 -791957182 15209480]
StyleMap: 0x0040
FSType: 4
OS2Version: 3
OS2_WeightWidthSlopeOnly: 0
OS2_UseTypoMetrics: 0
CreationTime: 1656270662
ModificationTime: 1762139386
PfmFamily: 81
TTFWeight: 400
TTFWidth: 5
LineGap: 9
VLineGap: 0
Panose: 0 0 0 0 0 0 0 0 0 0
OS2TypoAscent: 750
OS2TypoAOffset: 0
OS2TypoDescent: -250
OS2TypoDOffset: 0
OS2TypoLinegap: 0
OS2WinAscent: 692
OS2WinAOffset: 0
OS2WinDescent: 106
OS2WinDOffset: 0
HheadAscent: 750
HheadAOffset: 0
HheadDescent: -250
HheadDOffset: 0
OS2SubXSize: 700
OS2SubYSize: 650
OS2SubXOff: 0
OS2SubYOff: 140
OS2SupXSize: 700
OS2SupYSize: 650
OS2SupXOff: 0
OS2SupYOff: 477
OS2StrikeYSize: 50
OS2StrikeYPos: 250
OS2CapHeight: 700
OS2XHeight: 500
OS2Vendor: 'PYRS'
OS2CodePages: 00000001.00000000
OS2UnicodeRanges: 00000001.00000000.00000000.00000000
Lookup: 258 0 0 "'kern' Horizontal Kerning lookup 0" { "'kern' Horizontal Kerning lookup 0 subtable"  } ['kern' ('DFLT' <'dflt' > ) ]
DEI: 91125
TtTable: prep
PUSHW_1
 0
CALL
SVTCA[y-axis]
PUSHW_3
 1
 4
 2
CALL
SVTCA[x-axis]
PUSHW_3
 5
 3
 2
CALL
SVTCA[x-axis]
PUSHW_8
 5
 49
 43
 33
 24
 16
 0
 8
CALL
PUSHW_8
 6
 67
 55
 43
 31
 16
 0
 8
CALL
PUSHW_8
 7
 55
 43
 33
 24
 16
 0
 8
CALL
SVTCA[y-axis]
PUSHW_8
 1
 118
 89
 69
 50
 30
 0
 8
CALL
PUSHW_8
 2
 220
 180
 140
 100
 60
 0
 8
CALL
PUSHW_8
 3
 108
 89
 69
 50
 30
 0
 8
CALL
PUSHW_8
 4
 99
 89
 69
 50
 30
 0
 8
CALL
SVTCA[y-axis]
PUSHW_3
 8
 4
 7
CALL
PUSHW_1
 0
DUP
RCVT
RDTG
ROUND[Black]
RTG
WCVTP
EndTTInstrs
TtTable: fpgm
PUSHW_1
 0
FDEF
MPPEM
PUSHW_1
 9
LT
IF
PUSHB_2
 1
 1
INSTCTRL
EIF
PUSHW_1
 511
SCANCTRL

StartChar: E
Encoding: 69 69 2
Width: 677
GlyphClass: 1
Flags: W
LayerCount: 2
Fore
SplineSet
649 146 m 1,0,1
 549.050632911 5 549.050632911 5 368 5 c 0,2,3
 206.936170213 5 206.936170213 5 114 109 c 0,4,5
 72 156 72 156 51 216.5 c 128,-1,6
 30 277 30 277 30 341 c 128,-1,7
 30 405 30 405 52 467.5 c 128,-1,8
 74 530 74 530 118 579 c 0,9,10
 214.876467825 686.885157351 214.876467825 686.885157351 377 685 c 0,11,12
 445.455764075 682.986595174 445.455764075 682.986595174 521.5 645.5 c 0,13,14
 594.043478261 609.739130435 594.043478261 609.739130435 636 551 c 1,15,-1
 501 441 l 1,16,17
 484 601 484 601 371 607 c 1,18,19
 290.658015267 597.870229008 290.658015267 597.870229008 235 522.5 c 0,20,21
 186.874720358 457.330350485 186.874720358 457.330350485 180 384 c 1,22,-1
 321 384 l 1,23,24
 321 384 321 384 333 409.5 c 128,-1,25
 345 435 345 435 350 449 c 1,26,-1
 413 449 l 1,27,-1
 413 232 l 1,28,-1
 352 232 l 1,29,-1
 321 293 l 1,30,-1
 181 293 l 1,31,32
 189.413043478 231.304347826 189.413043478 231.304347826 217 170 c 0,33,34
 233 138 233 138 278.5 110 c 128,-1,35
 324 82 324 82 366 82 c 0,36,37
 411.683646113 78.1930294906 411.683646113 78.1930294906 471 147 c 0,38,39
 526.144694534 210.967845659 526.144694534 210.967845659 541 281 c 1,40,-1
 649 146 l 1,0,1
EndSplineSet
EndChar

StartChar: F
Encoding: 70 70 3
Width: 546
GlyphClass: 1
Flags: W
LayerCount: 2
Fore
SplineSet
229 117 m 2,0,1
 229 106 229 106 232 91 c 1,2,3
 237.85106383 86.3191489362 237.85106383 86.3191489362 275 76 c 1,4,-1
 291 10 l 1,5,-1
 47 10 l 1,6,-1
 46 80 l 1,7,8
 50 80 50 80 58 82 c 2,9,10
 58 82 58 82 70 85 c 0,11,12
 94 91 94 91 101 91 c 1,13,-1
 97 583 l 1,14,15
 70 601 70 601 42 601 c 1,16,-1
 30 677 l 1,17,-1
 480 677 l 1,18,-1
 523 497 l 1,19,-1
 455 496 l 1,20,-1
 392 595 l 1,21,-1
 229 595 l 1,22,-1
 229 436 l 1,23,-1
 313 436 l 1,24,-1
 339 503 l 1,25,-1
 399 503 l 1,26,-1
 401 288 l 1,27,-1
 344 288 l 1,28,-1
 315 349 l 1,29,-1
 229 349 l 1,30,-1
 229 117 l 2,0,1
EndSplineSet
EndChar

StartChar: G
Encoding: 71 71 4
Width: 739
GlyphClass: 1
Flags: W
LayerCount: 2
Fore
SplineSet
420 94 m 0,0,1
 468.260869565 94 468.260869565 94 520 128 c 1,2,-1
 520 321 l 1,3,-1
 438 326 l 1,4,-1
 438 403 l 1,5,-1
 664 403 l 1,6,-1
 664 11 l 1,7,-1
 603 11 l 1,8,-1
 575 57 l 1,9,10
 471 2 471 2 370 2 c 0,11,12
 278.227272727 2 278.227272727 2 202 45 c 0,13,14
 79.2876884422 109.585427136 79.2876884422 109.585427136 39.5 254 c 0,15,16
 26 303 26 303 26 341 c 0,17,18
 26 389.5 26 389.5 31 432 c 1,19,-1
 32 435 l 1,20,21
 64.5617198336 569.077669903 64.5617198336 569.077669903 169 630 c 0,22,23
 217 659 217 659 271 671.5 c 128,-1,24
 325 684 325 684 366 684 c 0,25,26
 466.482758621 684 466.482758621 684 545 649.5 c 0,27,28
 578 635 578 635 615 607 c 1,29,-1
 521 472 l 1,30,31
 488 534 488 534 440.5 570 c 128,-1,32
 393 606 393 606 345.5 605 c 128,-1,33
 298 604 298 604 263.5 583 c 128,-1,34
 229 562 229 562 210 525.5 c 0,35,36
 173 454.421052632 173 454.421052632 173 374 c 0,37,38
 173 262.918918919 173 262.918918919 239 188 c 1,39,-1
 238 188 l 1,40,41
 323.047619048 94 323.047619048 94 420 94 c 0,0,1
EndSplineSet
EndChar

StartChar: H
Encoding: 72 72 5
Width: 727
GlyphClass: 1
Flags: W
LayerCount: 2
Fore
SplineSet
93 603 m 1,0,1
 78.7692307692 605.846153846 78.7692307692 605.846153846 40 608 c 1,2,-1
 40 677 l 1,3,-1
 231 677 l 1,4,-1
 231 436 l 1,5,-1
 481 436 l 1,6,-1
 481 677 l 1,7,-1
 668 677 l 1,8,-1
 669 604 l 1,9,10
 624 604 624 604 614 602 c 1,11,12
 614 602 614 602 614 537 c 128,-1,13
 614 472 614 472 614.5 313.5 c 128,-1,14
 615 155 615 155 615 87 c 1,15,-1
 663 81 l 1,16,-1
 662 10 l 1,17,-1
 481 10 l 1,18,-1
 481 355 l 1,19,-1
 231 355 l 1,20,-1
 231 10 l 1,21,-1
 46 10 l 1,22,-1
 45 80 l 1,23,-1
 93 86 l 1,24,-1
 93 603 l 1,0,1
EndSplineSet
EndChar

StartChar: I
Encoding: 73 73 6
Width: 304
GlyphClass: 1
Flags: W
LayerCount: 2
Fore
SplineSet
63 601 m 1,0,1
 63 601 63 601 36 602 c 1,2,-1
 36 677 l 1,3,-1
 205 677 l 1,4,-1
 205 86 l 1,5,-1
 232 79 l 1,6,-1
 232 10 l 1,7,-1
 57 10 l 1,8,-1
 57 79 l 1,9,-1
 90 87 l 1,10,-1
 90 587 l 1,11,12
 84.6109701063 595.463432979 84.6109701063 595.463432979 81 598 c 1,13,-1
 63 601 l 1,0,1
EndSplineSet
EndChar

StartChar: J
Encoding: 74 74 7
Width: 428
GlyphClass: 1
Flags: W
LayerCount: 2
Fore
SplineSet
207 595 m 1,0,1
 187 604 187 604 158 607 c 1,2,-1
 157 677 l 1,3,-1
 337 677 l 1,4,-1
 337 212 l 2,5,6
 337 121.321428571 337 121.321428571 314 74.5 c 0,7,8
 282.210480728 9.78562148116 282.210480728 9.78562148116 213.605240364 7.89281074058 c 0,9,10
 83.0884641845 4.29186780287 83.0884641845 4.29186780287 -14 108 c 1,11,-1
 90 230 l 1,12,13
 130 145 130 145 142.290457819 128.351144547 c 128,-1,14
 154.580915637 111.702289093 154.580915637 111.702289093 168 100 c 1,15,16
 178 93 178 93 181 93 c 0,17,18
 207 93 207 93 207 99 c 2,19,-1
 207 595 l 1,0,1
EndSplineSet
EndChar

StartChar: K
Encoding: 75 75 8
Width: 668
GlyphClass: 1
Flags: W
LayerCount: 2
Fore
SplineSet
43 79 m 1,0,1
 96 86.5714285714 96 86.5714285714 96 89 c 2,2,-1
 96 598 l 1,3,4
 82.6666666667 603 82.6666666667 603 40 603 c 1,5,-1
 40 677 l 1,6,-1
 234 677 l 1,7,-1
 234 356 l 1,8,-1
 253 364 l 1,9,10
 340.764705882 407.882352941 340.764705882 407.882352941 376.5 446 c 0,11,12
 424 496.666666667 424 496.666666667 424 567 c 2,13,14
 424 567 424 567 424 580 c 128,-1,15
 424 593 424 593 422 602 c 1,16,-1
 375 611 l 1,17,-1
 376 677 l 1,18,-1
 566 676 l 1,19,20
 561.996150144 509.840230991 561.996150144 509.840230991 514 436 c 0,21,22
 482.652173913 391.217391304 482.652173913 391.217391304 437 362 c 1,23,-1
 405 343 l 1,24,25
 478.531392175 303.544131028 478.531392175 303.544131028 533.5 196.5 c 0,26,27
 543 178 543 178 554 154.5 c 128,-1,28
 565 131 565 131 584 111 c 128,-1,29
 603 91 603 91 641 82 c 1,30,-1
 654 10 l 1,31,-1
 453 10 l 1,32,33
 438.725490196 35.2549019608 438.725490196 35.2549019608 423.862745098 77.1274509804 c 0,34,35
 393.689915925 162.132829212 393.689915925 162.132829212 371 206 c 1,36,37
 330.421338156 270.448462929 330.421338156 270.448462929 287 278 c 1,38,-1
 286 278 l 1,39,40
 264.421052632 280.157894737 264.421052632 280.157894737 234 273 c 1,41,-1
 234 107 l 2,42,43
 234 94 234 94 237.5 91.5 c 128,-1,44
 241 89 241 89 249 87 c 1,45,-1
 248 88 l 1,46,47
 248 88 248 88 258 86 c 128,-1,48
 268 84 268 84 287 79 c 1,49,-1
 300 10 l 1,50,-1
 43 10 l 1,51,-1
 43 79 l 1,0,1
EndSplineSet
EndChar

StartChar: L
Encoding: 76 76 9
Width: 502
GlyphClass: 1
Flags: W
LayerCount: 2
Fore
SplineSet
365 95 m 1,0,1
 397.153846154 162.230769231 397.153846154 162.230769231 411 193 c 1,2,-1
 474 192 l 1,3,-1
 457 10 l 1,4,-1
 82 10 l 1,5,-1
 82 596 l 1,6,-1
 34 608 l 1,7,-1
 32 676 l 1,8,-1
 223 676 l 1,9,-1
 223 95 l 1,10,-1
 365 95 l 1,0,1
EndSplineSet
EndChar

StartChar: M
Encoding: 77 77 10
Width: 887
GlyphClass: 1
Flags: W
LayerCount: 2
Fore
SplineSet
365 652 m 1,0,1
 404.696428571 635.285714286 404.696428571 635.285714286 439 603 c 1,2,3
 473.303571429 635.285714286 473.303571429 635.285714286 521.151785714 656.142857143 c 128,-1,4
 569 677 569 677 616.5 677 c 128,-1,5
 664 677 664 677 711 655 c 0,6,7
 759.58490566 633.622641509 759.58490566 633.622641509 799.29245283 573.311320755 c 128,-1,8
 839 513 839 513 837.5 418.5 c 128,-1,9
 836 324 836 324 814 258 c 1,10,-1
 815 258 l 1,11,12
 795.592592593 194.925925926 795.592592593 194.925925926 772 141 c 2,13,-1
 748 86 l 1,14,-1
 783 81 l 1,15,-1
 782 10 l 1,16,-1
 578 10 l 1,17,18
 585 28 585 28 593.5 51 c 128,-1,19
 602 74 602 74 610.5 96.5 c 128,-1,20
 619 119 619 119 626 139.5 c 128,-1,21
 633 160 633 160 644.5 193 c 0,22,23
 690.223367698 324.206185567 690.223367698 324.206185567 692.611683849 405.103092784 c 128,-1,24
 695 486 695 486 684.5 513.5 c 128,-1,25
 674 541 674 541 661 555.5 c 128,-1,26
 648 570 648 570 633 578.5 c 0,27,28
 603.823170732 595.033536585 603.823170732 595.033536585 574.411585366 589.016768293 c 0,29,30
 515.274134131 576.918938914 515.274134131 576.918938914 505 505 c 1,31,-1
 505 86 l 1,32,-1
 554 76 l 1,33,-1
 555 10 l 1,34,-1
 323 10 l 1,35,-1
 324 76 l 1,36,-1
 373 86 l 1,37,-1
 373 505 l 1,38,39
 368 540 368 540 350.5 561.5 c 128,-1,40
 333 583 333 583 311 587.5 c 0,41,42
 262.284004353 597.464635473 262.284004353 597.464635473 226 565 c 0,43,44
 206 548 206 548 194.5 516 c 128,-1,45
 183 484 183 484 185 420.5 c 128,-1,46
 187 357 187 357 202.5 298.5 c 128,-1,47
 218 240 218 240 234 190 c 2,48,-1
 239 175 l 1,49,-1
 268 96 l 1,50,-1
 299 10 l 1,51,-1
 96 10 l 1,52,-1
 95 84 l 1,53,-1
 130 85 l 1,54,55
 83.4506437768 189.051502146 83.4506437768 189.051502146 68.2253218884 239.025751073 c 0,56,57
 42.9368680501 322.030333594 42.9368680501 322.030333594 41.4684340251 393.015166797 c 128,-1,58
 40 464 40 464 48.5 504 c 128,-1,59
 57 544 57 544 77 573 c 0,60,61
 148.157894737 677 148.157894737 677 256 677 c 0,62,63
 308 677 308 677 364 652 c 1,64,-1
 365 652 l 1,0,1
EndSplineSet
EndChar

StartChar: N
Encoding: 78 78 11
Width: 695
GlyphClass: 1
Flags: W
LayerCount: 2
Fore
SplineSet
90 595 m 1,0,1
 85 595 85 595 43 616 c 1,2,-1
 43 677 l 1,3,-1
 228 677 l 1,4,-1
 228 640 l 1,5,6
 280 672 280 672 366 677 c 1,7,8
 437.714285714 677 437.714285714 677 475.357142857 668.5 c 128,-1,9
 513 660 513 660 541.5 645 c 128,-1,10
 570 630 570 630 592.5 603.5 c 0,11,12
 642 545.2 642 545.2 642 437 c 0,13,14
 642 357.777777778 642 357.777777778 628 304.888888889 c 128,-1,15
 614 252 614 252 605 227 c 0,16,17
 592.487804878 192.243902439 592.487804878 192.243902439 567 132 c 1,18,-1
 544 90 l 1,19,20
 548 85 548 85 560.5 79 c 128,-1,21
 573 73 573 73 587 76 c 1,22,-1
 584 10 l 1,23,-1
 381 10 l 1,24,-1
 375 63 l 1,25,26
 440.154994259 159.429391504 440.154994259 159.429391504 469.5 263 c 0,27,28
 478 293 478 293 488.5 336.5 c 128,-1,29
 499 380 499 380 499 430 c 2,30,-1
 499 457 l 2,31,32
 499 488 499 488 496 511 c 1,33,34
 484.022060758 558.424636706 484.022060758 558.424636706 461.011030379 569.212318353 c 0,35,36
 421.160337366 587.894514785 421.160337366 587.894514785 401.080168683 589.947257392 c 128,-1,37
 381 592 381 592 372.5 592 c 128,-1,38
 364 592 364 592 358 591 c 1,39,-1
 345 591 l 2,40,41
 301 591 301 591 271 562 c 1,42,-1
 271 563 l 1,43,44
 243.285714286 535.285714286 243.285714286 535.285714286 236.642857143 513.142857143 c 0,45,46
 228 484.333333333 228 484.333333333 228 436 c 2,47,-1
 228 85 l 1,48,-1
 256 66 l 1,49,-1
 257 10 l 1,50,-1
 47 10 l 1,51,-1
 49 73 l 1,52,-1
 90 85 l 1,53,-1
 90 595 l 1,0,1
EndSplineSet
EndChar

StartChar: O
Encoding: 79 79 12
Width: 769
GlyphClass: 1
Flags: W
LayerCount: 2
Fore
SplineSet
184.5 485.5 m 128,-1,1
 173 451 173 451 173 405 c 128,-1,2
 173 359 173 359 185 301.5 c 128,-1,3
 197 244 197 244 223.5 197 c 0,4,5
 284.393617021 89 284.393617021 89 397 89 c 0,6,7
 480.491803279 89 480.491803279 89 532.5 156.5 c 0,8,9
 581 219.446808511 581 219.446808511 581 307 c 0,10,11
 581 413.838709677 581 413.838709677 516 504 c 0,12,13
 485 547 485 547 440.5 574 c 128,-1,14
 396 601 396 601 349.5 601 c 128,-1,15
 303 601 303 601 271.5 586 c 128,-1,16
 240 571 240 571 218 545.5 c 128,-1,0
 196 520 196 520 184.5 485.5 c 128,-1,1
734 339 m 0,17,18
 734 213.357142857 734 213.357142857 645 118 c 0,19,20
 554.992197659 21.5630689207 554.992197659 21.5630689207 423.5 12 c 0,21,22
 396 10 396 10 363 10 c 0,23,24
 216 10 216 10 122.5 103.5 c 0,25,26
 28 198 28 198 28 343 c 0,27,28
 28 491.906976744 28 491.906976744 118 584 c 0,29,30
 208.886363636 677 208.886363636 677 361 677 c 2,31,-1
 381 677 l 2,32,33
 451 677 451 677 515 651.5 c 128,-1,34
 579 626 579 626 627.5 581 c 128,-1,35
 676 536 676 536 705 474 c 128,-1,36
 734 412 734 412 734 339 c 0,17,18
EndSplineSet
EndChar

StartChar: P
Encoding: 80 80 13
Width: 552
GlyphClass: 1
Flags: W
LayerCount: 2
Fore
SplineSet
224 391 m 1,0,-1
 224 390 l 1,1,-1
 224 391 l 1,0,-1
224 391 m 1,2,3
 250.4 379 250.4 379 269 379 c 0,4,5
 321 379 321 379 335 386.5 c 0,6,7
 380.904677846 411.091791703 380.904677846 411.091791703 383 497 c 0,8,9
 383 538 383 538 376 555 c 0,10,11
 360 590 360 590 333 594 c 0,12,13
 317 598 317 598 288.5 598 c 2,14,15
 288.5 598 288.5 598 224 598 c 1,16,-1
 224 558 l 1,17,-1
 224 391 l 1,2,3
422 655 m 1,18,19
 517 617.441860465 517 617.441860465 517 490 c 0,20,21
 517 390.880597015 517 390.880597015 440.5 339.5 c 0,22,23
 378.711111111 298 378.711111111 298 282 298 c 0,24,25
 252 298 252 298 224 308 c 1,26,27
 224 308 224 308 223 91 c 1,28,-1
 274 73 l 1,29,-1
 275 10 l 1,30,-1
 40 10 l 1,31,-1
 41 78 l 1,32,-1
 89 86 l 1,33,-1
 89 594 l 1,34,35
 79.3333333333 600.904761905 79.3333333333 600.904761905 44 611 c 1,36,-1
 43 676 l 1,37,-1
 178 676 l 2,38,39
 307 676 307 676 334 674 c 0,40,41
 389.448780488 669.892682927 389.448780488 669.892682927 423 654 c 1,42,-1
 422 655 l 1,18,19
EndSplineSet
EndChar

StartChar: Q
Encoding: 81 81 14
Width: 770
GlyphClass: 1
Flags: W
LayerCount: 2
Fore
SplineSet
184 493.5 m 128,-1,1
 172 460 172 460 172 410 c 128,-1,2
 172 360 172 360 185.5 301.5 c 128,-1,3
 199 243 199 243 229 196.5 c 0,4,5
 295.774193548 93 295.774193548 93 422 93 c 0,6,7
 496.814285714 93 496.814285714 93 542.5 175 c 0,8,9
 581 244.102564103 581 244.102564103 581 329 c 0,10,11
 581 430.857142857 581 430.857142857 513.5 515.5 c 0,12,13
 482 555 482 555 438.5 580 c 128,-1,14
 395 605 395 605 349.5 605 c 128,-1,15
 304 605 304 605 272.5 591 c 128,-1,16
 241 577 241 577 218.5 552 c 128,-1,0
 196 527 196 527 184 493.5 c 128,-1,1
707 479.5 m 128,-1,18
 736 417 736 417 736 351 c 128,-1,19
 736 285 736 285 715.5 232.5 c 128,-1,20
 695 180 695 180 659.5 137.5 c 0,21,22
 587.713296399 51.5581717452 587.713296399 51.5581717452 472 20 c 1,23,24
 469 -17 469 -17 460.5 -40.5 c 128,-1,25
 452 -64 452 -64 433 -78 c 0,26,27
 400.397101449 -102.023188406 400.397101449 -102.023188406 297 -106 c 1,28,-1
 297 -27 l 1,29,30
 320 -25 320 -25 325.5 -12.5 c 128,-1,31
 331 0 331 0 332 14 c 1,32,33
 197.135319795 28.0903397229 197.135319795 28.0903397229 114 118.5 c 0,34,35
 30 209.85 30 209.85 30 351 c 0,36,37
 30 509.880434783 30 509.880434783 127 599.5 c 0,38,39
 220.623529412 686 220.623529412 686 383 686 c 0,40,41
 452 686 452 686 516 659.5 c 128,-1,42
 580 633 580 633 629 587.5 c 128,-1,17
 678 542 678 542 707 479.5 c 128,-1,18
EndSplineSet
EndChar

StartChar: R
Encoding: 82 82 15
Width: 643
GlyphClass: 1
Flags: W
LayerCount: 2
Fore
SplineSet
288 595 m 0,0,1
 261.666666667 595 261.666666667 595 222 581 c 1,2,-1
 222 355 l 1,3,-1
 312 355 l 1,4,5
 341 357 341 357 365 376 c 1,6,-1
 365 375 l 1,7,8
 390 395 390 395 395.5 409 c 0,9,10
 414.564837905 457.528678304 414.564837905 457.528678304 403.5 519 c 0,11,12
 399 544 399 544 377 571 c 0,13,14
 356 594 356 594 288 595 c 0,0,1
88 604 m 1,15,-1
 50 628 l 1,16,-1
 49 677 l 1,17,-1
 222 677 l 1,18,-1
 222 662 l 1,19,20
 317.607917059 688.889726673 317.607917059 688.889726673 412.5 664 c 0,21,22
 443 656 443 656 466 643 c 0,23,24
 514 615 514 615 533 574.5 c 128,-1,25
 552 534 552 534 552 476 c 0,26,27
 550 447 550 447 547.5 418 c 128,-1,28
 545 389 545 389 534 363.5 c 0,29,30
 509.481927711 306.662650602 509.481927711 306.662650602 430 289 c 1,31,32
 458 233 458 233 476.5 196.5 c 128,-1,33
 495 160 495 160 505.5 138 c 0,34,35
 524 99.2380952381 524 99.2380952381 524 94 c 1,36,37
 536 91 536 91 552.5 86.5 c 2,38,39
 552.5 86.5 552.5 86.5 580 79 c 1,40,-1
 630 10 l 1,41,-1
 422 10 l 1,42,-1
 285 272 l 1,43,-1
 222 272 l 1,44,-1
 222 93 l 1,45,-1
 258 68 l 1,46,-1
 260 10 l 1,47,-1
 43 10 l 1,48,-1
 43 73 l 1,49,-1
 88 90 l 1,50,-1
 88 604 l 1,15,-1
EndSplineSet
EndChar

StartChar: S
Encoding: 83 83 16
Width: 608
GlyphClass: 1
Flags: W
LayerCount: 2
Fore
SplineSet
482 417 m 1,0,-1
 446 490 l 1,1,2
 414.621896272 547.807019387 414.621896272 547.807019387 356 580.5 c 0,3,4
 330 595 330 595 297 598 c 0,5,6
 261.272727273 598 261.272727273 598 232 575 c 0,7,8
 200 549.857142857 200 549.857142857 200 515 c 0,9,10
 200 462.744680851 200 462.744680851 281.5 435 c 0,11,12
 305 427 305 427 336.5 418 c 128,-1,13
 368 409 368 409 405 396.5 c 128,-1,14
 442 384 442 384 471.5 362 c 0,15,16
 537 313.152542373 537 313.152542373 537 219 c 0,17,18
 537 121.767123288 537 121.767123288 454.5 63 c 0,19,20
 381.5 11 381.5 11 285 11 c 0,21,22
 199.566666667 11 199.566666667 11 141.5 37 c 0,23,24
 68.6569767442 69.6162790698 68.6569767442 69.6162790698 22 148 c 1,25,-1
 129 269 l 1,26,27
 162.673749143 144.40712817 162.673749143 144.40712817 230.5 104 c 0,28,29
 254 90 254 90 278.5 90 c 128,-1,30
 303 90 303 90 325.5 97.5 c 128,-1,31
 348 105 348 105 365.5 119 c 0,32,33
 405 150.6 405 150.6 405 195 c 0,34,35
 405 262.245283019 405 262.245283019 311.5 294 c 0,36,37
 285.473440849 303 285.473440849 303 253.236720424 313 c 128,-1,38
 221 323 221 323 185 336 c 128,-1,39
 149 349 149 349 121 370 c 0,40,41
 59 416.5 59 416.5 59 503 c 0,42,43
 59 593.8 59 593.8 133.5 638.5 c 0,44,45
 194.333333333 675 194.333333333 675 285 675 c 0,46,47
 344.31049156 675 344.31049156 675 426 640 c 0,48,49
 431 638 431 638 436 636.5 c 128,-1,50
 441 635 441 635 445 633 c 256,51,52
 454.5 628.25 454.5 628.25 465.25 633.625 c 2,53,54
 465.25 633.625 465.25 633.625 486 644 c 1,55,-1
 546 633 l 1,56,-1
 482 417 l 1,0,-1
EndSplineSet
EndChar

StartChar: T
Encoding: 84 84 17
Width: 544
GlyphClass: 1
Flags: W
LayerCount: 2
Fore
SplineSet
125 591 m 1,0,1
 125 591 125 591 65 516 c 1,2,-1
 -3 528 l 1,3,-1
 55 677 l 1,4,-1
 477 677 l 1,5,-1
 534 528 l 1,6,-1
 467 516 l 1,7,-1
 406 591 l 1,8,-1
 329 591 l 1,9,-1
 329 93 l 1,10,11
 331 89 331 89 387 80 c 1,12,-1
 387 10 l 1,13,-1
 144 10 l 1,14,-1
 144 80 l 1,15,16
 199.583333333 89.5833333333 199.583333333 89.5833333333 203 93 c 1,17,-1
 203 591 l 1,18,-1
 125 591 l 1,0,1
EndSplineSet
EndChar

StartChar: U
Encoding: 85 85 18
Width: 694
GlyphClass: 1
Flags: W
LayerCount: 2
Fore
SplineSet
139 597 m 1,0,1
 113.875 605.375 113.875 605.375 82 611 c 1,2,-1
 83 677 l 1,3,-1
 309 677 l 1,4,-1
 311 632 l 1,5,-1
 305 616 l 1,6,7
 225.820143885 497.230215827 225.820143885 497.230215827 196.5 346 c 0,8,9
 187 297 187 297 187 260 c 128,-1,10
 187 223 187 223 190 195 c 128,-1,11
 193 167 193 167 203 145 c 0,12,13
 225.272727273 96 225.272727273 96 287 96 c 0,14,15
 368 96 368 96 414 130 c 128,-1,16
 460 164 460 164 460 242 c 2,17,-1
 460 601 l 1,18,-1
 418 616 l 1,19,-1
 417 677 l 1,20,-1
 597 677 l 1,21,-1
 596 93 l 2,22,23
 596 88 596 88 612 84.5 c 128,-1,24
 628 81 628 81 643 78 c 1,25,-1
 643 10 l 1,26,-1
 460 11 l 1,27,-1
 460 55 l 1,28,29
 424 31 424 31 376.5 20.5 c 128,-1,30
 329 10 329 10 280 10 c 128,-1,31
 231 10 231 10 185.5 23 c 128,-1,32
 140 36 140 36 108.5 64.5 c 0,33,34
 44 122.857142857 44 122.857142857 44 246 c 0,35,36
 44 342.973684211 44 342.973684211 76 441.5 c 0,37,38
 95 500 95 500 122 561 c 2,39,-1
 127 572 l 1,40,-1
 139 597 l 1,0,1
EndSplineSet
EndChar

StartChar: V
Encoding: 86 86 19
Width: 643
GlyphClass: 1
Flags: W
LayerCount: 2
Fore
SplineSet
203 594 m 1,0,1
 205 594 205 594 206 595 c 1,2,3
 205 594 205 594 203 594 c 1,0,1
52 594 m 258,4,5
 52 594 52 594 -9 614 c 1,6,-1
 -9 678 l 1,7,-1
 279 678 l 1,8,-1
 279 608 l 1,9,10
 227 602 227 602 211 596 c 1,11,12
 209.647058824 583.823529412 209.647058824 583.823529412 225 548 c 1,13,-1
 229 541 l 1,14,-1
 337 304 l 1,15,-1
 447 601 l 1,16,-1
 424 605 l 1,17,18
 424 605 424 605 414 605.5 c 128,-1,19
 404 606 404 606 387 607 c 1,20,-1
 388 678 l 1,21,-1
 624 678 l 1,22,-1
 624 618 l 1,23,-1
 538 586 l 1,24,25
 501 481 501 481 465 382.5 c 128,-1,26
 429 284 429 284 392 178 c 1,27,28
 392 178 392 178 425 98 c 1,29,30
 425 98 425 98 444.5 101 c 128,-1,31
 464 104 464 104 474 105 c 1,32,-1
 530 49 l 1,33,34
 362 -4 362 -4 343 -4 c 128,-1,35
 324 -4 324 -4 310 22 c 0,36,37
 71.71875 559.5625 71.71875 559.5625 55 593 c 1,38,-1
 54 593 l 2,39,40
 53 593 53 593 53 593.5 c 128,-1,41
 53 594 53 594 52 594 c 258,4,5
EndSplineSet
EndChar

StartChar: W
Encoding: 87 87 20
Width: 884
GlyphClass: 1
Flags: W
LayerCount: 2
Fore
SplineSet
511 35 m 1,0,1
 471.303571429 51.7142857143 471.303571429 51.7142857143 437 84 c 1,2,3
 402.696428571 51.7142857143 402.696428571 51.7142857143 355.348214286 30.8571428571 c 128,-1,4
 308 10 308 10 260.5 10 c 128,-1,5
 213 10 213 10 176 26.5 c 128,-1,6
 139 43 139 43 117 64 c 0,7,8
 60.2829650748 118.138987883 60.2829650748 118.138987883 46.5 183 c 0,9,10
 30.9796010879 256.037171351 30.9796010879 256.037171351 45.5 359 c 0,11,12
 56.2324324324 435.102702703 56.2324324324 435.102702703 103 542 c 0,13,14
 104 544 104 544 105 547 c 128,-1,15
 106 550 106 550 109 557 c 128,-1,16
 112 564 112 564 114.5 570.5 c 128,-1,17
 117 577 117 577 118.5 581 c 1,18,19
 118.5 584 118.5 584 127 601 c 1,20,-1
 93 606 l 1,21,-1
 94 677 l 1,22,-1
 298 677 l 1,23,-1
 269 600 l 1,24,-1
 237 512 l 1,25,26
 185.802768166 364.096885813 185.802768166 364.096885813 183.988395403 283.023222149 c 128,-1,27
 182.174022639 201.949558484 182.174022639 201.949558484 193 168 c 1,28,29
 209.597633136 127.42800789 209.597633136 127.42800789 243 108.5 c 0,30,31
 271.902439024 92.1219512195 271.902439024 92.1219512195 301.451219512 98.0609756098 c 0,32,33
 360.710210028 109.971470195 360.710210028 109.971470195 371 182 c 1,34,-1
 371 601 l 1,35,-1
 321 611 l 1,36,-1
 321 677 l 1,37,-1
 552 677 l 1,38,-1
 552 611 l 1,39,-1
 503 601 l 1,40,-1
 503 182 l 1,41,42
 508 147 508 147 525.5 125.5 c 128,-1,43
 543 104 543 104 565 99.5 c 0,44,45
 615.334065934 89.2043956044 615.334065934 89.2043956044 649 121 c 0,46,47
 669 139 669 139 681 171 c 128,-1,48
 693 203 693 203 691 269.5 c 128,-1,49
 689 336 689 336 671.5 398 c 128,-1,50
 654 460 654 460 642.5 492 c 128,-1,51
 631 524 631 524 624 545 c 128,-1,52
 617 566 617 566 608.5 589.5 c 0,53,54
 588.173913043 645.695652174 588.173913043 645.695652174 576 677 c 1,55,-1
 780 677 l 1,56,-1
 781 603 l 1,57,-1
 746 602 l 1,58,59
 794.930232558 485.790697674 794.930232558 485.790697674 813 429 c 1,60,-1
 812 429 l 1,61,62
 834 363 834 363 835.5 268.5 c 128,-1,63
 837 174 837 174 798 114 c 0,64,65
 760 58 760 58 709.5 34 c 0,66,67
 614.416893733 -11.1880108992 614.416893733 -11.1880108992 512 35 c 1,68,-1
 511 35 l 1,0,1
EndSplineSet
EndChar

StartChar: X
Encoding: 88 88 21
Width: 699
GlyphClass: 1
Flags: W
LayerCount: 2
Fore
SplineSet
359 446 m 1,0,1
 365.666666667 455.333333333 365.666666667 455.333333333 461 591 c 1,2,-1
 461 596 l 1,3,4
 442 604 442 604 391 607 c 1,5,6
 391 620 391 620 388.5 633.5 c 128,-1,7
 386 647 386 647 371 677 c 1,8,-1
 562 677 l 2,9,10
 573 677 573 677 587.5 666 c 128,-1,11
 602 655 602 655 602 644 c 0,12,13
 602 626.181818182 602 626.181818182 579 599 c 1,14,15
 579 599 579 599 570 586 c 128,-1,16
 561 573 561 573 541 545 c 128,-1,17
 521 517 521 517 493.5 480 c 128,-1,18
 466 443 466 443 447.5 417.5 c 128,-1,19
 429 392 429 392 425 387 c 128,-1,20
 421 382 421 382 413 371 c 1,21,22
 577 125 577 125 597 106 c 0,23,24
 610 91 610 91 616.211341074 90.0395189486 c 128,-1,25
 622.422682149 89.0790378972 622.422682149 89.0790378972 635.211341074 88.5395189486 c 128,-1,26
 648 88 648 88 670 86 c 1,27,-1
 698 10 l 1,28,-1
 417 10 l 1,29,-1
 387 73 l 1,30,-1
 444 86 l 1,31,32
 428 109 428 109 414.5 128 c 128,-1,33
 401 147 401 147 388 166 c 128,-1,34
 375 185 375 185 360.5 205.5 c 128,-1,35
 346 226 346 226 329 251 c 1,36,37
 272 170 272 170 247 131 c 128,-1,38
 222 92 222 92 217 92 c 1,39,40
 228.903225806 85.3870967742 228.903225806 85.3870967742 250.451612903 82.6935483871 c 0,41,42
 291.47826087 77.5652173913 291.47826087 77.5652173913 304 72 c 1,43,-1
 303 10 l 1,44,-1
 26 10 l 1,45,-1
 25 70 l 1,46,47
 72 89 72 89 92 96.5 c 128,-1,48
 112 104 112 104 119 108 c 0,49,50
 128 119 128 119 138.5 134 c 128,-1,51
 149 149 149 149 165.5 172.5 c 128,-1,52
 182 196 182 196 207 230.5 c 128,-1,53
 232 265 232 265 268 316 c 1,54,-1
 279 330 l 1,55,-1
 103 598 l 1,56,-1
 30 607 l 1,57,-1
 30 677 l 1,58,-1
 213 677 l 1,59,-1
 359 446 l 1,0,1
EndSplineSet
EndChar

StartChar: Y
Encoding: 89 89 22
Width: 616
GlyphClass: 1
Flags: W
LayerCount: 2
Fore
SplineSet
465 602 m 1,0,1
 465 602 465 602 401 606 c 1,2,-1
 366 606 l 1,3,-1
 367 677 l 1,4,-1
 619 677 l 1,5,6
 551.042105263 580.726315789 551.042105263 580.726315789 381 307 c 1,7,-1
 381 96 l 1,8,9
 427.153846154 74.4615384615 427.153846154 74.4615384615 437 72 c 1,10,11
 437 72 437 72 448 57 c 1,12,13
 448 28 448 28 430 10 c 1,14,-1
 177 10 l 1,15,-1
 178 73 l 1,16,-1
 238 96 l 1,17,-1
 238 289 l 1,18,19
 118 509 118 509 66 585 c 1,20,-1
 57 591 l 1,21,22
 55 595 55 595 -1 610 c 1,23,-1
 -17 677 l 1,24,25
 -17 677 -17 677 8.75 677 c 128,-1,26
 34.5 677 34.5 677 95 676 c 1,27,-1
 182 676 l 1,28,-1
 336 399 l 1,29,-1
 465 602 l 1,0,1
EndSplineSet
EndChar

StartChar: Z
Encoding: 90 90 23
Width: 575
GlyphClass: 1
Flags: W
LayerCount: 2
Fore
SplineSet
332 597 m 1,0,1
 242 595 242 595 155 595 c 1,2,-1
 92 485 l 1,3,-1
 33 516 l 1,4,-1
 75 677 l 1,5,-1
 480 677 l 1,6,-1
 501 623 l 1,7,-1
 221 86 l 1,8,-1
 410 88 l 1,9,10
 426 114 426 114 446 143.5 c 128,-1,11
 466 173 466 173 480 196 c 1,12,-1
 543 175 l 1,13,-1
 508 10 l 1,14,-1
 47 10 l 1,15,-1
 38 63 l 1,16,-1
 332 597 l 1,0,1
EndSplineSet
EndChar

StartChar: D
Encoding: 68 68 24
Width: 687
GlyphClass: 1
Flags: W
LayerCount: 2
Fore
SplineSet
470 481 m 1,0,1
 442 555 442 555 409 572 c 0,2,3
 374.3125 592.8125 374.3125 592.8125 335.65625 594.40625 c 0,4,5
 272.745098039 597 272.745098039 597 235 597 c 2,6,-1
 226 597 l 1,7,-1
 226 94 l 1,8,-1
 227 94 l 2,9,10
 282.6 94 282.6 94 322.3 102.5 c 128,-1,11
 362 111 362 111 407 140 c 0,12,13
 451 166 451 166 468 204 c 0,14,15
 493 256.272727273 493 256.272727273 493 332 c 0,16,17
 493 400 493 400 469 482 c 1,18,-1
 470 481 l 1,0,1
95 586 m 2,19,20
 95 591 95 591 83 595.5 c 128,-1,21
 71 600 71 600 42 609 c 1,22,-1
 41 677 l 1,23,-1
 300 677 l 1,24,25
 390.14985015 678.878121878 390.14985015 678.878121878 476 637 c 0,26,27
 601.54987634 572.730420445 601.54987634 572.730420445 637.5 450.5 c 0,28,29
 650 408 650 408 650 366.5 c 0,30,31
 650 282.947368421 650 282.947368421 615.5 212.473684211 c 128,-1,32
 581 142 581 142 537 103 c 128,-1,33
 493 64 493 64 439.5 43.5 c 0,34,35
 352.073170732 10 352.073170732 10 198 10 c 2,36,-1
 43 10 l 1,37,-1
 43 80 l 1,38,-1
 95 90 l 1,39,-1
 95 586 l 2,19,20
EndSplineSet
EndChar

StartChar: a
Encoding: 97 97 25
Width: 636
GlyphClass: 1
Flags: W
LayerCount: 2
Fore
SplineSet
556 102 m 1,0,-1
 556 101 l 1,1,-1
 556 102 l 1,0,-1
-8 72 m 1,2,3
 54.5 87 54.5 87 63.25 87 c 128,-1,4
 72 87 72 87 74 89 c 1,5,-1
 223 497 l 1,6,7
 223 497 223 497 191 590 c 1,8,9
 149 584 149 584 141 584 c 1,10,-1
 82 643 l 1,11,12
 165.396226415 660.169811321 165.396226415 660.169811321 176.047169811 664.627358491 c 128,-1,14
 186.698113208 669.08490566 186.698113208 669.08490566 208 678 c 1,15,16
 232.5 692 232.5 692 262.25 692 c 128,-1,17
 292 692 292 692 305 666 c 1,18,-1
 548 117 l 1,19,20
 548 117 548 117 556 101 c 1,21,22
 562 95 562 95 575 90 c 2,23,-1
 624 75 l 1,24,-1
 625 10 l 1,25,-1
 342 10 l 1,26,-1
 342 88 l 1,27,28
 390.555555556 82.8888888889 390.555555556 82.8888888889 392.611111111 83.4027777778 c 2,29,30
 392.611111111 83.4027777778 392.611111111 83.4027777778 411 88 c 1,31,32
 413 92 413 92 415 90 c 1,33,34
 414 94 414 94 412.5 97.375 c 2,35,36
 412.5 97.375 412.5 97.375 395.25 136.1875 c 128,-1,37
 378 175 378 175 363 210 c 1,38,-1
 213 210 l 1,39,40
 201 175 201 175 191 148.5 c 128,-1,41
 181 122 181 122 167 84 c 1,42,43
 195.219512195 79.6585365854 195.219512195 79.6585365854 228 82 c 1,44,-1
 227 10 l 1,45,-1
 -8 10 l 1,46,-1
 -8 72 l 1,2,3
348 280 m 1,47,48
 348 280 348 280 277 431 c 1,49,-1
 219 279 l 1,50,51
 251 279 251 279 282 279.5 c 128,-1,52
 313 280 313 280 348 280 c 1,47,48
EndSplineSet
EndChar

StartChar: b
Encoding: 98 98 26
Width: 623
GlyphClass: 1
Flags: W
LayerCount: 2
Fore
SplineSet
356 409 m 1,0,1
 379 439.666666667 379 439.666666667 379 490.333333333 c 0,2,3
 379 563.655172414 379 563.655172414 331.5 591.5 c 0,4,5
 317 600 317 600 287 602 c 0,6,7
 235 602 235 602 235 582 c 2,8,-1
 235 391 l 1,9,-1
 301 395 l 1,10,11
 348.903225806 399.35483871 348.903225806 399.35483871 356 410 c 1,12,-1
 356 409 l 1,0,1
235 87 m 1,13,-1
 257 87 l 2,14,15
 334 87 334 87 373.5 106.5 c 128,-1,16
 413 126 413 126 423.5 151.5 c 128,-1,17
 434 177 434 177 434 193.5 c 0,18,19
 434 248 434 248 423 270 c 128,-1,20
 412 292 412 292 402 301.5 c 0,21,22
 387.789473684 315 387.789473684 315 339 315 c 1,23,-1
 235 311 l 1,24,-1
 235 87 l 1,13,-1
467 380 m 1,25,26
 546.724684152 353.138010645 546.724684152 353.138010645 573 256 c 0,27,28
 581 227 581 227 581 197 c 128,-1,29
 581 167 581 167 570.5 132.5 c 0,30,31
 547.803921569 57.9271708683 547.803921569 57.9271708683 478 32 c 0,32,33
 416 8 416 8 328 10 c 1,34,-1
 67 10 l 1,35,36
 20.252173913 13.3391304348 20.252173913 13.3391304348 32.5 46 c 0,37,38
 37 58 37 58 47 68 c 128,-1,39
 57 78 57 78 58.5 79.0714285714 c 128,-1,40
 60 80.1428571429 60 80.1428571429 93 85 c 1,41,42
 95 87 95 87 95 92 c 2,43,-1
 95 597 l 1,44,-1
 41 611 l 1,45,-1
 40 677 l 1,46,-1
 197 677 l 1,47,-1
 210 663 l 1,48,49
 243.6 677 243.6 677 304 677 c 0,50,51
 382.666666667 677 382.666666667 677 428 653 c 1,52,-1
 427 653 l 1,53,54
 470.675675676 628.432432432 470.675675676 628.432432432 487.337837838 606.216216216 c 0,55,56
 521 561.333333333 521 561.333333333 521 497.666666667 c 128,-1,57
 521 434 521 434 467 380 c 1,25,26
EndSplineSet
EndChar

StartChar: c
Encoding: 99 99 27
Width: 688
GlyphClass: 1
Flags: W
LayerCount: 2
Fore
SplineSet
440 107 m 0,0,1
 527.333333333 107 527.333333333 107 582 230 c 1,2,-1
 654 205 l 1,3,4
 611.234375 106.453125 611.234375 106.453125 535 52 c 0,5,6
 467.8 4 467.8 4 392.4 4 c 128,-1,7
 317 4 317 4 253.5 28.5 c 128,-1,8
 190 53 190 53 139 97.5 c 128,-1,9
 88 142 88 142 56.5 203.5 c 128,-1,10
 25 265 25 265 25 342 c 128,-1,11
 25 419 25 419 53 483 c 128,-1,12
 81 547 81 547 129.5 592 c 0,13,14
 230.811111111 686 230.811111111 686 383 686 c 0,15,16
 475.052631579 686 475.052631579 686 579.5 623 c 0,17,18
 611 604 611 604 644 583 c 1,19,-1
 572 424 l 1,20,21
 449.777777778 600 449.777777778 600 337 600 c 0,22,23
 268.346153846 600 268.346153846 600 207 545 c 0,24,25
 162 503.461538462 162 503.461538462 162 412 c 0,26,27
 162 304.371428571 162 304.371428571 235 198 c 0,28,29
 257 166 257 166 293 143 c 128,-1,30
 329 120 329 120 364 113 c 1,31,-1
 363 114 l 1,32,33
 398 107 398 107 440 107 c 0,0,1
EndSplineSet
EndChar

StartChar: d
Encoding: 100 100 28
Width: 687
GlyphClass: 1
Flags: W
LayerCount: 2
Fore
SplineSet
470 481 m 1,0,1
 442 555 442 555 409 572 c 0,2,3
 374.3125 592.8125 374.3125 592.8125 335.65625 594.40625 c 0,4,5
 272.745098039 597 272.745098039 597 235 597 c 2,6,-1
 226 597 l 1,7,-1
 226 94 l 1,8,-1
 227 94 l 2,9,10
 282.6 94 282.6 94 322.3 102.5 c 128,-1,11
 362 111 362 111 407 140 c 0,12,13
 451 166 451 166 468 204 c 0,14,15
 493 256.272727273 493 256.272727273 493 332 c 0,16,17
 493 400 493 400 469 482 c 1,18,-1
 470 481 l 1,0,1
95 586 m 2,19,20
 95 591 95 591 83 595.5 c 128,-1,21
 71 600 71 600 42 609 c 1,22,-1
 41 677 l 1,23,-1
 300 677 l 1,24,25
 390.14985015 678.878121878 390.14985015 678.878121878 476 637 c 0,26,27
 601.54987634 572.730420445 601.54987634 572.730420445 637.5 450.5 c 0,28,29
 650 408 650 408 650 366.5 c 0,30,31
 650 282.947368421 650 282.947368421 615.5 212.473684211 c 128,-1,32
 581 142 581 142 537 103 c 128,-1,33
 493 64 493 64 439.5 43.5 c 0,34,35
 352.073170732 10 352.073170732 10 198 10 c 2,36,-1
 43 10 l 1,37,-1
 43 80 l 1,38,-1
 95 90 l 1,39,-1
 95 586 l 2,19,20
EndSplineSet
EndChar

StartChar: e
Encoding: 101 101 29
Width: 677
GlyphClass: 1
Flags: W
LayerCount: 2
Fore
SplineSet
649 146 m 1,0,1
 549.050632911 5 549.050632911 5 368 5 c 0,2,3
 206.936170213 5 206.936170213 5 114 109 c 0,4,5
 72 156 72 156 51 216.5 c 128,-1,6
 30 277 30 277 30 341 c 128,-1,7
 30 405 30 405 52 467.5 c 128,-1,8
 74 530 74 530 118 579 c 0,9,10
 214.876467825 686.885157351 214.876467825 686.885157351 377 685 c 0,11,12
 445.455764075 682.986595174 445.455764075 682.986595174 521.5 645.5 c 0,13,14
 594.043478261 609.739130435 594.043478261 609.739130435 636 551 c 1,15,-1
 501 441 l 1,16,17
 484 601 484 601 371 607 c 1,18,19
 290.658015267 597.870229008 290.658015267 597.870229008 235 522.5 c 0,20,21
 186.874720358 457.330350485 186.874720358 457.330350485 180 384 c 1,22,-1
 321 384 l 1,23,24
 321 384 321 384 333 409.5 c 128,-1,25
 345 435 345 435 350 449 c 1,26,-1
 413 449 l 1,27,-1
 413 232 l 1,28,-1
 352 232 l 1,29,-1
 321 293 l 1,30,-1
 181 293 l 1,31,32
 189.413043478 231.304347826 189.413043478 231.304347826 217 170 c 0,33,34
 233 138 233 138 278.5 110 c 128,-1,35
 324 82 324 82 366 82 c 0,36,37
 411.683646113 78.1930294906 411.683646113 78.1930294906 471 147 c 0,38,39
 526.144694534 210.967845659 526.144694534 210.967845659 541 281 c 1,40,-1
 649 146 l 1,0,1
EndSplineSet
EndChar

StartChar: f
Encoding: 102 102 30
Width: 546
GlyphClass: 1
Flags: W
LayerCount: 2
Fore
SplineSet
229 117 m 2,0,1
 229 106 229 106 232 91 c 1,2,3
 237.85106383 86.3191489362 237.85106383 86.3191489362 275 76 c 1,4,-1
 291 10 l 1,5,-1
 47 10 l 1,6,-1
 46 80 l 1,7,8
 50 80 50 80 58 82 c 2,9,10
 58 82 58 82 70 85 c 0,11,12
 94 91 94 91 101 91 c 1,13,-1
 97 583 l 1,14,15
 70 601 70 601 42 601 c 1,16,-1
 30 677 l 1,17,-1
 480 677 l 1,18,-1
 523 497 l 1,19,-1
 455 496 l 1,20,-1
 392 595 l 1,21,-1
 229 595 l 1,22,-1
 229 436 l 1,23,-1
 313 436 l 1,24,-1
 339 503 l 1,25,-1
 399 503 l 1,26,-1
 401 288 l 1,27,-1
 344 288 l 1,28,-1
 315 349 l 1,29,-1
 229 349 l 1,30,-1
 229 117 l 2,0,1
EndSplineSet
EndChar

StartChar: g
Encoding: 103 103 31
Width: 739
GlyphClass: 1
Flags: W
LayerCount: 2
Fore
SplineSet
420 94 m 0,0,1
 468.260869565 94 468.260869565 94 520 128 c 1,2,-1
 520 321 l 1,3,-1
 438 326 l 1,4,-1
 438 403 l 1,5,-1
 664 403 l 1,6,-1
 664 11 l 1,7,-1
 603 11 l 1,8,-1
 575 57 l 1,9,10
 471 2 471 2 370 2 c 0,11,12
 278.227272727 2 278.227272727 2 202 45 c 0,13,14
 79.2876884422 109.585427136 79.2876884422 109.585427136 39.5 254 c 0,15,16
 26 303 26 303 26 341 c 0,17,18
 26 389.5 26 389.5 31 432 c 1,19,-1
 32 435 l 1,20,21
 64.5617198336 569.077669903 64.5617198336 569.077669903 169 630 c 0,22,23
 217 659 217 659 271 671.5 c 128,-1,24
 325 684 325 684 366 684 c 0,25,26
 466.482758621 684 466.482758621 684 545 649.5 c 0,27,28
 578 635 578 635 615 607 c 1,29,-1
 521 472 l 1,30,31
 488 534 488 534 440.5 570 c 128,-1,32
 393 606 393 606 345.5 605 c 128,-1,33
 298 604 298 604 263.5 583 c 128,-1,34
 229 562 229 562 210 525.5 c 0,35,36
 173 454.421052632 173 454.421052632 173 374 c 0,37,38
 173 262.918918919 173 262.918918919 239 188 c 1,39,-1
 238 188 l 1,40,41
 323.047619048 94 323.047619048 94 420 94 c 0,0,1
EndSplineSet
EndChar

StartChar: h
Encoding: 104 104 32
Width: 727
GlyphClass: 1
Flags: W
LayerCount: 2
Fore
SplineSet
93 603 m 1,0,1
 78.7692307692 605.846153846 78.7692307692 605.846153846 40 608 c 1,2,-1
 40 677 l 1,3,-1
 231 677 l 1,4,-1
 231 436 l 1,5,-1
 481 436 l 1,6,-1
 481 677 l 1,7,-1
 668 677 l 1,8,-1
 669 604 l 1,9,10
 624 604 624 604 614 602 c 1,11,12
 614 602 614 602 614 537 c 128,-1,13
 614 472 614 472 614.5 313.5 c 128,-1,14
 615 155 615 155 615 87 c 1,15,-1
 663 81 l 1,16,-1
 662 10 l 1,17,-1
 481 10 l 1,18,-1
 481 355 l 1,19,-1
 231 355 l 1,20,-1
 231 10 l 1,21,-1
 46 10 l 1,22,-1
 45 80 l 1,23,-1
 93 86 l 1,24,-1
 93 603 l 1,0,1
EndSplineSet
EndChar

StartChar: i
Encoding: 105 105 33
Width: 304
GlyphClass: 1
Flags: W
LayerCount: 2
Fore
SplineSet
63 601 m 1,0,1
 63 601 63 601 36 602 c 1,2,-1
 36 677 l 1,3,-1
 205 677 l 1,4,-1
 205 86 l 1,5,-1
 232 79 l 1,6,-1
 232 10 l 1,7,-1
 57 10 l 1,8,-1
 57 79 l 1,9,-1
 90 87 l 1,10,-1
 90 587 l 1,11,12
 84.6109701063 595.463432979 84.6109701063 595.463432979 81 598 c 1,13,-1
 63 601 l 1,0,1
EndSplineSet
EndChar

StartChar: j
Encoding: 106 106 34
Width: 428
GlyphClass: 1
Flags: W
LayerCount: 2
Fore
SplineSet
207 595 m 1,0,1
 187 604 187 604 158 607 c 1,2,-1
 157 677 l 1,3,-1
 337 677 l 1,4,-1
 337 212 l 2,5,6
 337 121.321428571 337 121.321428571 314 74.5 c 0,7,8
 282.210480728 9.78562148116 282.210480728 9.78562148116 213.605240364 7.89281074058 c 0,9,10
 83.0884641845 4.29186780287 83.0884641845 4.29186780287 -14 108 c 1,11,-1
 90 230 l 1,12,13
 130 145 130 145 142.290457819 128.351144547 c 128,-1,14
 154.580915637 111.702289093 154.580915637 111.702289093 168 100 c 1,15,16
 178 93 178 93 181 93 c 0,17,18
 207 93 207 93 207 99 c 2,19,-1
 207 595 l 1,0,1
EndSplineSet
EndChar

StartChar: k
Encoding: 107 107 35
Width: 668
GlyphClass: 1
Flags: W
LayerCount: 2
Fore
SplineSet
43 79 m 1,0,1
 96 86.5714285714 96 86.5714285714 96 89 c 2,2,-1
 96 598 l 1,3,4
 82.6666666667 603 82.6666666667 603 40 603 c 1,5,-1
 40 677 l 1,6,-1
 234 677 l 1,7,-1
 234 356 l 1,8,-1
 253 364 l 1,9,10
 340.764705882 407.882352941 340.764705882 407.882352941 376.5 446 c 0,11,12
 424 496.666666667 424 496.666666667 424 567 c 2,13,14
 424 567 424 567 424 580 c 128,-1,15
 424 593 424 593 422 602 c 1,16,-1
 375 611 l 1,17,-1
 376 677 l 1,18,-1
 566 676 l 1,19,20
 561.996150144 509.840230991 561.996150144 509.840230991 514 436 c 0,21,22
 482.652173913 391.217391304 482.652173913 391.217391304 437 362 c 1,23,-1
 405 343 l 1,24,25
 478.531392175 303.544131028 478.531392175 303.544131028 533.5 196.5 c 0,26,27
 543 178 543 178 554 154.5 c 128,-1,28
 565 131 565 131 584 111 c 128,-1,29
 603 91 603 91 641 82 c 1,30,-1
 654 10 l 1,31,-1
 453 10 l 1,32,33
 438.725490196 35.2549019608 438.725490196 35.2549019608 423.862745098 77.1274509804 c 0,34,35
 393.689915925 162.132829212 393.689915925 162.132829212 371 206 c 1,36,37
 330.421338156 270.448462929 330.421338156 270.448462929 287 278 c 1,38,-1
 286 278 l 1,39,40
 264.421052632 280.157894737 264.421052632 280.157894737 234 273 c 1,41,-1
 234 107 l 2,42,43
 234 94 234 94 237.5 91.5 c 128,-1,44
 241 89 241 89 249 87 c 1,45,-1
 248 88 l 1,46,47
 248 88 248 88 258 86 c 128,-1,48
 268 84 268 84 287 79 c 1,49,-1
 300 10 l 1,50,-1
 43 10 l 1,51,-1
 43 79 l 1,0,1
EndSplineSet
EndChar

StartChar: l
Encoding: 108 108 36
Width: 502
GlyphClass: 1
Flags: W
LayerCount: 2
Fore
SplineSet
365 95 m 1,0,1
 397.153846154 162.230769231 397.153846154 162.230769231 411 193 c 1,2,-1
 474 192 l 1,3,-1
 457 10 l 1,4,-1
 82 10 l 1,5,-1
 82 596 l 1,6,-1
 34 608 l 1,7,-1
 32 676 l 1,8,-1
 223 676 l 1,9,-1
 223 95 l 1,10,-1
 365 95 l 1,0,1
EndSplineSet
EndChar

StartChar: m
Encoding: 109 109 37
Width: 887
GlyphClass: 1
Flags: W
LayerCount: 2
Fore
SplineSet
365 652 m 1,0,1
 404.696428571 635.285714286 404.696428571 635.285714286 439 603 c 1,2,3
 473.303571429 635.285714286 473.303571429 635.285714286 521.151785714 656.142857143 c 128,-1,4
 569 677 569 677 616.5 677 c 128,-1,5
 664 677 664 677 711 655 c 0,6,7
 759.58490566 633.622641509 759.58490566 633.622641509 799.29245283 573.311320755 c 128,-1,8
 839 513 839 513 837.5 418.5 c 128,-1,9
 836 324 836 324 814 258 c 1,10,-1
 815 258 l 1,11,12
 795.592592593 194.925925926 795.592592593 194.925925926 772 141 c 2,13,-1
 748 86 l 1,14,-1
 783 81 l 1,15,-1
 782 10 l 1,16,-1
 578 10 l 1,17,18
 585 28 585 28 593.5 51 c 128,-1,19
 602 74 602 74 610.5 96.5 c 128,-1,20
 619 119 619 119 626 139.5 c 128,-1,21
 633 160 633 160 644.5 193 c 0,22,23
 690.223367698 324.206185567 690.223367698 324.206185567 692.611683849 405.103092784 c 128,-1,24
 695 486 695 486 684.5 513.5 c 128,-1,25
 674 541 674 541 661 555.5 c 128,-1,26
 648 570 648 570 633 578.5 c 0,27,28
 603.823170732 595.033536585 603.823170732 595.033536585 574.411585366 589.016768293 c 0,29,30
 515.274134131 576.918938914 515.274134131 576.918938914 505 505 c 1,31,-1
 505 86 l 1,32,-1
 554 76 l 1,33,-1
 555 10 l 1,34,-1
 323 10 l 1,35,-1
 324 76 l 1,36,-1
 373 86 l 1,37,-1
 373 505 l 1,38,39
 368 540 368 540 350.5 561.5 c 128,-1,40
 333 583 333 583 311 587.5 c 0,41,42
 262.284004353 597.464635473 262.284004353 597.464635473 226 565 c 0,43,44
 206 548 206 548 194.5 516 c 128,-1,45
 183 484 183 484 185 420.5 c 128,-1,46
 187 357 187 357 202.5 298.5 c 128,-1,47
 218 240 218 240 234 190 c 2,48,-1
 239 175 l 1,49,-1
 268 96 l 1,50,-1
 299 10 l 1,51,-1
 96 10 l 1,52,-1
 95 84 l 1,53,-1
 130 85 l 1,54,55
 83.4506437768 189.051502146 83.4506437768 189.051502146 68.2253218884 239.025751073 c 0,56,57
 42.9368680501 322.030333594 42.9368680501 322.030333594 41.4684340251 393.015166797 c 128,-1,58
 40 464 40 464 48.5 504 c 128,-1,59
 57 544 57 544 77 573 c 0,60,61
 148.157894737 677 148.157894737 677 256 677 c 0,62,63
 308 677 308 677 364 652 c 1,64,-1
 365 652 l 1,0,1
EndSplineSet
EndChar

StartChar: n
Encoding: 110 110 38
Width: 695
GlyphClass: 1
Flags: W
LayerCount: 2
Fore
SplineSet
90 595 m 1,0,1
 85 595 85 595 43 616 c 1,2,-1
 43 677 l 1,3,-1
 228 677 l 1,4,-1
 228 640 l 1,5,6
 280 672 280 672 366 677 c 1,7,8
 437.714285714 677 437.714285714 677 475.357142857 668.5 c 128,-1,9
 513 660 513 660 541.5 645 c 128,-1,10
 570 630 570 630 592.5 603.5 c 0,11,12
 642 545.2 642 545.2 642 437 c 0,13,14
 642 357.777777778 642 357.777777778 628 304.888888889 c 128,-1,15
 614 252 614 252 605 227 c 0,16,17
 592.487804878 192.243902439 592.487804878 192.243902439 567 132 c 1,18,-1
 544 90 l 1,19,20
 548 85 548 85 560.5 79 c 128,-1,21
 573 73 573 73 587 76 c 1,22,-1
 584 10 l 1,23,-1
 381 10 l 1,24,-1
 375 63 l 1,25,26
 440.154994259 159.429391504 440.154994259 159.429391504 469.5 263 c 0,27,28
 478 293 478 293 488.5 336.5 c 128,-1,29
 499 380 499 380 499 430 c 2,30,-1
 499 457 l 2,31,32
 499 488 499 488 496 511 c 1,33,34
 484.022060758 558.424636706 484.022060758 558.424636706 461.011030379 569.212318353 c 0,35,36
 421.160337366 587.894514785 421.160337366 587.894514785 401.080168683 589.947257392 c 128,-1,37
 381 592 381 592 372.5 592 c 128,-1,38
 364 592 364 592 358 591 c 1,39,-1
 345 591 l 2,40,41
 301 591 301 591 271 562 c 1,42,-1
 271 563 l 1,43,44
 243.285714286 535.285714286 243.285714286 535.285714286 236.642857143 513.142857143 c 0,45,46
 228 484.333333333 228 484.333333333 228 436 c 2,47,-1
 228 85 l 1,48,-1
 256 66 l 1,49,-1
 257 10 l 1,50,-1
 47 10 l 1,51,-1
 49 73 l 1,52,-1
 90 85 l 1,53,-1
 90 595 l 1,0,1
EndSplineSet
EndChar

StartChar: o
Encoding: 111 111 39
Width: 769
GlyphClass: 1
Flags: W
LayerCount: 2
Fore
SplineSet
184.5 485.5 m 128,-1,1
 173 451 173 451 173 405 c 128,-1,2
 173 359 173 359 185 301.5 c 128,-1,3
 197 244 197 244 223.5 197 c 0,4,5
 284.393617021 89 284.393617021 89 397 89 c 0,6,7
 480.491803279 89 480.491803279 89 532.5 156.5 c 0,8,9
 581 219.446808511 581 219.446808511 581 307 c 0,10,11
 581 413.838709677 581 413.838709677 516 504 c 0,12,13
 485 547 485 547 440.5 574 c 128,-1,14
 396 601 396 601 349.5 601 c 128,-1,15
 303 601 303 601 271.5 586 c 128,-1,16
 240 571 240 571 218 545.5 c 128,-1,0
 196 520 196 520 184.5 485.5 c 128,-1,1
734 339 m 0,17,18
 734 213.357142857 734 213.357142857 645 118 c 0,19,20
 554.992197659 21.5630689207 554.992197659 21.5630689207 423.5 12 c 0,21,22
 396 10 396 10 363 10 c 0,23,24
 216 10 216 10 122.5 103.5 c 0,25,26
 28 198 28 198 28 343 c 0,27,28
 28 491.906976744 28 491.906976744 118 584 c 0,29,30
 208.886363636 677 208.886363636 677 361 677 c 2,31,-1
 381 677 l 2,32,33
 451 677 451 677 515 651.5 c 128,-1,34
 579 626 579 626 627.5 581 c 128,-1,35
 676 536 676 536 705 474 c 128,-1,36
 734 412 734 412 734 339 c 0,17,18
EndSplineSet
EndChar

StartChar: p
Encoding: 112 112 40
Width: 552
GlyphClass: 1
Flags: W
LayerCount: 2
Fore
SplineSet
224 391 m 1,0,-1
 224 390 l 1,1,-1
 224 391 l 1,0,-1
224 391 m 1,2,3
 250.4 379 250.4 379 269 379 c 0,4,5
 321 379 321 379 335 386.5 c 0,6,7
 380.904677846 411.091791703 380.904677846 411.091791703 383 497 c 0,8,9
 383 538 383 538 376 555 c 0,10,11
 360 590 360 590 333 594 c 0,12,13
 317 598 317 598 288.5 598 c 2,14,15
 288.5 598 288.5 598 224 598 c 1,16,-1
 224 558 l 1,17,-1
 224 391 l 1,2,3
422 655 m 1,18,19
 517 617.441860465 517 617.441860465 517 490 c 0,20,21
 517 390.880597015 517 390.880597015 440.5 339.5 c 0,22,23
 378.711111111 298 378.711111111 298 282 298 c 0,24,25
 252 298 252 298 224 308 c 1,26,27
 224 308 224 308 223 91 c 1,28,-1
 274 73 l 1,29,-1
 275 10 l 1,30,-1
 40 10 l 1,31,-1
 41 78 l 1,32,-1
 89 86 l 1,33,-1
 89 594 l 1,34,35
 79.3333333333 600.904761905 79.3333333333 600.904761905 44 611 c 1,36,-1
 43 676 l 1,37,-1
 178 676 l 2,38,39
 307 676 307 676 334 674 c 0,40,41
 389.448780488 669.892682927 389.448780488 669.892682927 423 654 c 1,42,-1
 422 655 l 1,18,19
EndSplineSet
EndChar

StartChar: q
Encoding: 113 113 41
Width: 770
GlyphClass: 1
Flags: W
LayerCount: 2
Fore
SplineSet
184 493.5 m 128,-1,1
 172 460 172 460 172 410 c 128,-1,2
 172 360 172 360 185.5 301.5 c 128,-1,3
 199 243 199 243 229 196.5 c 0,4,5
 295.774193548 93 295.774193548 93 422 93 c 0,6,7
 496.814285714 93 496.814285714 93 542.5 175 c 0,8,9
 581 244.102564103 581 244.102564103 581 329 c 0,10,11
 581 430.857142857 581 430.857142857 513.5 515.5 c 0,12,13
 482 555 482 555 438.5 580 c 128,-1,14
 395 605 395 605 349.5 605 c 128,-1,15
 304 605 304 605 272.5 591 c 128,-1,16
 241 577 241 577 218.5 552 c 128,-1,0
 196 527 196 527 184 493.5 c 128,-1,1
707 479.5 m 128,-1,18
 736 417 736 417 736 351 c 128,-1,19
 736 285 736 285 715.5 232.5 c 128,-1,20
 695 180 695 180 659.5 137.5 c 0,21,22
 587.713296399 51.5581717452 587.713296399 51.5581717452 472 20 c 1,23,24
 469 -17 469 -17 460.5 -40.5 c 128,-1,25
 452 -64 452 -64 433 -78 c 0,26,27
 400.397101449 -102.023188406 400.397101449 -102.023188406 297 -106 c 1,28,-1
 297 -27 l 1,29,30
 320 -25 320 -25 325.5 -12.5 c 128,-1,31
 331 0 331 0 332 14 c 1,32,33
 197.135319795 28.0903397229 197.135319795 28.0903397229 114 118.5 c 0,34,35
 30 209.85 30 209.85 30 351 c 0,36,37
 30 509.880434783 30 509.880434783 127 599.5 c 0,38,39
 220.623529412 686 220.623529412 686 383 686 c 0,40,41
 452 686 452 686 516 659.5 c 128,-1,42
 580 633 580 633 629 587.5 c 128,-1,17
 678 542 678 542 707 479.5 c 128,-1,18
EndSplineSet
EndChar

StartChar: r
Encoding: 114 114 42
Width: 643
GlyphClass: 1
Flags: W
LayerCount: 2
Fore
SplineSet
288 595 m 0,0,1
 261.666666667 595 261.666666667 595 222 581 c 1,2,-1
 222 355 l 1,3,-1
 312 355 l 1,4,5
 341 357 341 357 365 376 c 1,6,-1
 365 375 l 1,7,8
 390 395 390 395 395.5 409 c 0,9,10
 414.564837905 457.528678304 414.564837905 457.528678304 403.5 519 c 0,11,12
 399 544 399 544 377 571 c 0,13,14
 356 594 356 594 288 595 c 0,0,1
88 604 m 1,15,-1
 50 628 l 1,16,-1
 49 677 l 1,17,-1
 222 677 l 1,18,-1
 222 662 l 1,19,20
 317.607917059 688.889726673 317.607917059 688.889726673 412.5 664 c 0,21,22
 443 656 443 656 466 643 c 0,23,24
 514 615 514 615 533 574.5 c 128,-1,25
 552 534 552 534 552 476 c 0,26,27
 550 447 550 447 547.5 418 c 128,-1,28
 545 389 545 389 534 363.5 c 0,29,30
 509.481927711 306.662650602 509.481927711 306.662650602 430 289 c 1,31,32
 458 233 458 233 476.5 196.5 c 128,-1,33
 495 160 495 160 505.5 138 c 0,34,35
 524 99.2380952381 524 99.2380952381 524 94 c 1,36,37
 536 91 536 91 552.5 86.5 c 2,38,39
 552.5 86.5 552.5 86.5 580 79 c 1,40,-1
 630 10 l 1,41,-1
 422 10 l 1,42,-1
 285 272 l 1,43,-1
 222 272 l 1,44,-1
 222 93 l 1,45,-1
 258 68 l 1,46,-1
 260 10 l 1,47,-1
 43 10 l 1,48,-1
 43 73 l 1,49,-1
 88 90 l 1,50,-1
 88 604 l 1,15,-1
EndSplineSet
EndChar

StartChar: s
Encoding: 115 115 43
Width: 608
GlyphClass: 1
Flags: W
LayerCount: 2
Fore
SplineSet
482 417 m 1,0,-1
 446 490 l 1,1,2
 414.621896272 547.807019387 414.621896272 547.807019387 356 580.5 c 0,3,4
 330 595 330 595 297 598 c 0,5,6
 261.272727273 598 261.272727273 598 232 575 c 0,7,8
 200 549.857142857 200 549.857142857 200 515 c 0,9,10
 200 462.744680851 200 462.744680851 281.5 435 c 0,11,12
 305 427 305 427 336.5 418 c 128,-1,13
 368 409 368 409 405 396.5 c 128,-1,14
 442 384 442 384 471.5 362 c 0,15,16
 537 313.152542373 537 313.152542373 537 219 c 0,17,18
 537 121.767123288 537 121.767123288 454.5 63 c 0,19,20
 381.5 11 381.5 11 285 11 c 0,21,22
 199.566666667 11 199.566666667 11 141.5 37 c 0,23,24
 68.6569767442 69.6162790698 68.6569767442 69.6162790698 22 148 c 1,25,-1
 129 269 l 1,26,27
 162.673749143 144.40712817 162.673749143 144.40712817 230.5 104 c 0,28,29
 254 90 254 90 278.5 90 c 128,-1,30
 303 90 303 90 325.5 97.5 c 128,-1,31
 348 105 348 105 365.5 119 c 0,32,33
 405 150.6 405 150.6 405 195 c 0,34,35
 405 262.245283019 405 262.245283019 311.5 294 c 0,36,37
 285.473440849 303 285.473440849 303 253.236720424 313 c 128,-1,38
 221 323 221 323 185 336 c 128,-1,39
 149 349 149 349 121 370 c 0,40,41
 59 416.5 59 416.5 59 503 c 0,42,43
 59 593.8 59 593.8 133.5 638.5 c 0,44,45
 194.333333333 675 194.333333333 675 285 675 c 0,46,47
 344.31049156 675 344.31049156 675 426 640 c 0,48,49
 431 638 431 638 436 636.5 c 128,-1,50
 441 635 441 635 445 633 c 256,51,52
 454.5 628.25 454.5 628.25 465.25 633.625 c 2,53,54
 465.25 633.625 465.25 633.625 486 644 c 1,55,-1
 546 633 l 1,56,-1
 482 417 l 1,0,-1
EndSplineSet
EndChar

StartChar: t
Encoding: 116 116 44
Width: 544
GlyphClass: 1
Flags: W
LayerCount: 2
Fore
SplineSet
125 591 m 1,0,1
 125 591 125 591 65 516 c 1,2,-1
 -3 528 l 1,3,-1
 55 677 l 1,4,-1
 477 677 l 1,5,-1
 534 528 l 1,6,-1
 467 516 l 1,7,-1
 406 591 l 1,8,-1
 329 591 l 1,9,-1
 329 93 l 1,10,11
 331 89 331 89 387 80 c 1,12,-1
 387 10 l 1,13,-1
 144 10 l 1,14,-1
 144 80 l 1,15,16
 199.583333333 89.5833333333 199.583333333 89.5833333333 203 93 c 1,17,-1
 203 591 l 1,18,-1
 125 591 l 1,0,1
EndSplineSet
EndChar

StartChar: u
Encoding: 117 117 45
Width: 694
GlyphClass: 1
Flags: W
LayerCount: 2
Fore
SplineSet
139 597 m 1,0,1
 113.875 605.375 113.875 605.375 82 611 c 1,2,-1
 83 677 l 1,3,-1
 309 677 l 1,4,-1
 311 632 l 1,5,-1
 305 616 l 1,6,7
 225.820143885 497.230215827 225.820143885 497.230215827 196.5 346 c 0,8,9
 187 297 187 297 187 260 c 128,-1,10
 187 223 187 223 190 195 c 128,-1,11
 193 167 193 167 203 145 c 0,12,13
 225.272727273 96 225.272727273 96 287 96 c 0,14,15
 368 96 368 96 414 130 c 128,-1,16
 460 164 460 164 460 242 c 2,17,-1
 460 601 l 1,18,-1
 418 616 l 1,19,-1
 417 677 l 1,20,-1
 597 677 l 1,21,-1
 596 93 l 2,22,23
 596 88 596 88 612 84.5 c 128,-1,24
 628 81 628 81 643 78 c 1,25,-1
 643 10 l 1,26,-1
 460 11 l 1,27,-1
 460 55 l 1,28,29
 424 31 424 31 376.5 20.5 c 128,-1,30
 329 10 329 10 280 10 c 128,-1,31
 231 10 231 10 185.5 23 c 128,-1,32
 140 36 140 36 108.5 64.5 c 0,33,34
 44 122.857142857 44 122.857142857 44 246 c 0,35,36
 44 342.973684211 44 342.973684211 76 441.5 c 0,37,38
 95 500 95 500 122 561 c 2,39,-1
 127 572 l 1,40,-1
 139 597 l 1,0,1
EndSplineSet
EndChar

StartChar: v
Encoding: 118 118 46
Width: 643
GlyphClass: 1
Flags: W
LayerCount: 2
Fore
SplineSet
203 594 m 1,0,1
 205 594 205 594 206 595 c 1,2,3
 205 594 205 594 203 594 c 1,0,1
52 594 m 258,4,5
 52 594 52 594 -9 614 c 1,6,-1
 -9 678 l 1,7,-1
 279 678 l 1,8,-1
 279 608 l 1,9,10
 227 602 227 602 211 596 c 1,11,12
 209.647058824 583.823529412 209.647058824 583.823529412 225 548 c 1,13,-1
 229 541 l 1,14,-1
 337 304 l 1,15,-1
 447 601 l 1,16,-1
 424 605 l 1,17,18
 424 605 424 605 414 605.5 c 128,-1,19
 404 606 404 606 387 607 c 1,20,-1
 388 678 l 1,21,-1
 624 678 l 1,22,-1
 624 618 l 1,23,-1
 538 586 l 1,24,25
 501 481 501 481 465 382.5 c 128,-1,26
 429 284 429 284 392 178 c 1,27,28
 392 178 392 178 425 98 c 1,29,30
 425 98 425 98 444.5 101 c 128,-1,31
 464 104 464 104 474 105 c 1,32,-1
 530 49 l 1,33,34
 362 -4 362 -4 343 -4 c 128,-1,35
 324 -4 324 -4 310 22 c 0,36,37
 71.71875 559.5625 71.71875 559.5625 55 593 c 1,38,-1
 54 593 l 2,39,40
 53 593 53 593 53 593.5 c 128,-1,41
 53 594 53 594 52 594 c 258,4,5
EndSplineSet
EndChar

StartChar: w
Encoding: 119 119 47
Width: 884
GlyphClass: 1
Flags: W
LayerCount: 2
Fore
SplineSet
511 35 m 1,0,1
 471.303571429 51.7142857143 471.303571429 51.7142857143 437 84 c 1,2,3
 402.696428571 51.7142857143 402.696428571 51.7142857143 355.348214286 30.8571428571 c 128,-1,4
 308 10 308 10 260.5 10 c 128,-1,5
 213 10 213 10 176 26.5 c 128,-1,6
 139 43 139 43 117 64 c 0,7,8
 60.2829650748 118.138987883 60.2829650748 118.138987883 46.5 183 c 0,9,10
 30.9796010879 256.037171351 30.9796010879 256.037171351 45.5 359 c 0,11,12
 56.2324324324 435.102702703 56.2324324324 435.102702703 103 542 c 0,13,14
 104 544 104 544 105 547 c 128,-1,15
 106 550 106 550 109 557 c 128,-1,16
 112 564 112 564 114.5 570.5 c 128,-1,17
 117 577 117 577 118.5 581 c 1,18,19
 118.5 584 118.5 584 127 601 c 1,20,-1
 93 606 l 1,21,-1
 94 677 l 1,22,-1
 298 677 l 1,23,-1
 269 600 l 1,24,-1
 237 512 l 1,25,26
 185.802768166 364.096885813 185.802768166 364.096885813 183.988395403 283.023222149 c 128,-1,27
 182.174022639 201.949558484 182.174022639 201.949558484 193 168 c 1,28,29
 209.597633136 127.42800789 209.597633136 127.42800789 243 108.5 c 0,30,31
 271.902439024 92.1219512195 271.902439024 92.1219512195 301.451219512 98.0609756098 c 0,32,33
 360.710210028 109.971470195 360.710210028 109.971470195 371 182 c 1,34,-1
 371 601 l 1,35,-1
 321 611 l 1,36,-1
 321 677 l 1,37,-1
 552 677 l 1,38,-1
 552 611 l 1,39,-1
 503 601 l 1,40,-1
 503 182 l 1,41,42
 508 147 508 147 525.5 125.5 c 128,-1,43
 543 104 543 104 565 99.5 c 0,44,45
 615.334065934 89.2043956044 615.334065934 89.2043956044 649 121 c 0,46,47
 669 139 669 139 681 171 c 128,-1,48
 693 203 693 203 691 269.5 c 128,-1,49
 689 336 689 336 671.5 398 c 128,-1,50
 654 460 654 460 642.5 492 c 128,-1,51
 631 524 631 524 624 545 c 128,-1,52
 617 566 617 566 608.5 589.5 c 0,53,54
 588.173913043 645.695652174 588.173913043 645.695652174 576 677 c 1,55,-1
 780 677 l 1,56,-1
 781 603 l 1,57,-1
 746 602 l 1,58,59
 794.930232558 485.790697674 794.930232558 485.790697674 813 429 c 1,60,-1
 812 429 l 1,61,62
 834 363 834 363 835.5 268.5 c 128,-1,63
 837 174 837 174 798 114 c 0,64,65
 760 58 760 58 709.5 34 c 0,66,67
 614.416893733 -11.1880108992 614.416893733 -11.1880108992 512 35 c 1,68,-1
 511 35 l 1,0,1
EndSplineSet
EndChar

StartChar: x
Encoding: 120 120 48
Width: 699
GlyphClass: 1
Flags: W
LayerCount: 2
Fore
SplineSet
359 446 m 1,0,1
 365.666666667 455.333333333 365.666666667 455.333333333 461 591 c 1,2,-1
 461 596 l 1,3,4
 442 604 442 604 391 607 c 1,5,6
 391 620 391 620 388.5 633.5 c 128,-1,7
 386 647 386 647 371 677 c 1,8,-1
 562 677 l 2,9,10
 573 677 573 677 587.5 666 c 128,-1,11
 602 655 602 655 602 644 c 0,12,13
 602 626.181818182 602 626.181818182 579 599 c 1,14,15
 579 599 579 599 570 586 c 128,-1,16
 561 573 561 573 541 545 c 128,-1,17
 521 517 521 517 493.5 480 c 128,-1,18
 466 443 466 443 447.5 417.5 c 128,-1,19
 429 392 429 392 425 387 c 128,-1,20
 421 382 421 382 413 371 c 1,21,22
 577 125 577 125 597 106 c 0,23,24
 610 91 610 91 616.211341074 90.0395189486 c 128,-1,25
 622.422682149 89.0790378972 622.422682149 89.0790378972 635.211341074 88.5395189486 c 128,-1,26
 648 88 648 88 670 86 c 1,27,-1
 698 10 l 1,28,-1
 417 10 l 1,29,-1
 387 73 l 1,30,-1
 444 86 l 1,31,32
 428 109 428 109 414.5 128 c 128,-1,33
 401 147 401 147 388 166 c 128,-1,34
 375 185 375 185 360.5 205.5 c 128,-1,35
 346 226 346 226 329 251 c 1,36,37
 272 170 272 170 247 131 c 128,-1,38
 222 92 222 92 217 92 c 1,39,40
 228.903225806 85.3870967742 228.903225806 85.3870967742 250.451612903 82.6935483871 c 0,41,42
 291.47826087 77.5652173913 291.47826087 77.5652173913 304 72 c 1,43,-1
 303 10 l 1,44,-1
 26 10 l 1,45,-1
 25 70 l 1,46,47
 72 89 72 89 92 96.5 c 128,-1,48
 112 104 112 104 119 108 c 0,49,50
 128 119 128 119 138.5 134 c 128,-1,51
 149 149 149 149 165.5 172.5 c 128,-1,52
 182 196 182 196 207 230.5 c 128,-1,53
 232 265 232 265 268 316 c 1,54,-1
 279 330 l 1,55,-1
 103 598 l 1,56,-1
 30 607 l 1,57,-1
 30 677 l 1,58,-1
 213 677 l 1,59,-1
 359 446 l 1,0,1
EndSplineSet
EndChar

StartChar: y
Encoding: 121 121 49
Width: 616
GlyphClass: 1
Flags: W
LayerCount: 2
Fore
SplineSet
465 602 m 1,0,1
 465 602 465 602 401 606 c 1,2,-1
 366 606 l 1,3,-1
 367 677 l 1,4,-1
 619 677 l 1,5,6
 551.042105263 580.726315789 551.042105263 580.726315789 381 307 c 1,7,-1
 381 96 l 1,8,9
 427.153846154 74.4615384615 427.153846154 74.4615384615 437 72 c 1,10,11
 437 72 437 72 448 57 c 1,12,13
 448 28 448 28 430 10 c 1,14,-1
 177 10 l 1,15,-1
 178 73 l 1,16,-1
 238 96 l 1,17,-1
 238 289 l 1,18,19
 118 509 118 509 66 585 c 1,20,-1
 57 591 l 1,21,22
 55 595 55 595 -1 610 c 1,23,-1
 -17 677 l 1,24,25
 -17 677 -17 677 8.75 677 c 128,-1,26
 34.5 677 34.5 677 95 676 c 1,27,-1
 182 676 l 1,28,-1
 336 399 l 1,29,-1
 465 602 l 1,0,1
EndSplineSet
EndChar

StartChar: z
Encoding: 122 122 50
Width: 575
GlyphClass: 1
Flags: W
LayerCount: 2
Fore
SplineSet
332 597 m 1,0,1
 242 595 242 595 155 595 c 1,2,-1
 92 485 l 1,3,-1
 33 516 l 1,4,-1
 75 677 l 1,5,-1
 480 677 l 1,6,-1
 501 623 l 1,7,-1
 221 86 l 1,8,-1
 410 88 l 1,9,10
 426 114 426 114 446 143.5 c 128,-1,11
 466 173 466 173 480 196 c 1,12,-1
 543 175 l 1,13,-1
 508 10 l 1,14,-1
 47 10 l 1,15,-1
 38 63 l 1,16,-1
 332 597 l 1,0,1
EndSplineSet
EndChar

StartChar: B
Encoding: 66 66 51
Width: 623
GlyphClass: 1
Flags: W
LayerCount: 2
Fore
SplineSet
356 409 m 1,0,1
 379 439.666666667 379 439.666666667 379 490.333333333 c 0,2,3
 379 563.655172414 379 563.655172414 331.5 591.5 c 0,4,5
 317 600 317 600 287 602 c 0,6,7
 235 602 235 602 235 582 c 2,8,-1
 235 391 l 1,9,-1
 301 395 l 1,10,11
 348.903225806 399.35483871 348.903225806 399.35483871 356 410 c 1,12,-1
 356 409 l 1,0,1
235 87 m 1,13,-1
 257 87 l 2,14,15
 334 87 334 87 373.5 106.5 c 128,-1,16
 413 126 413 126 423.5 151.5 c 128,-1,17
 434 177 434 177 434 193.5 c 0,18,19
 434 248 434 248 423 270 c 128,-1,20
 412 292 412 292 402 301.5 c 0,21,22
 387.789473684 315 387.789473684 315 339 315 c 1,23,-1
 235 311 l 1,24,-1
 235 87 l 1,13,-1
467 380 m 1,25,26
 546.724684152 353.138010645 546.724684152 353.138010645 573 256 c 0,27,28
 581 227 581 227 581 197 c 128,-1,29
 581 167 581 167 570.5 132.5 c 0,30,31
 547.803921569 57.9271708683 547.803921569 57.9271708683 478 32 c 0,32,33
 416 8 416 8 328 10 c 1,34,-1
 67 10 l 1,35,36
 20.252173913 13.3391304348 20.252173913 13.3391304348 32.5 46 c 0,37,38
 37 58 37 58 47 68 c 128,-1,39
 57 78 57 78 58.5 79.0714285714 c 128,-1,40
 60 80.1428571429 60 80.1428571429 93 85 c 1,41,42
 95 87 95 87 95 92 c 2,43,-1
 95 597 l 1,44,-1
 41 611 l 1,45,-1
 40 677 l 1,46,-1
 197 677 l 1,47,-1
 210 663 l 1,48,49
 243.6 677 243.6 677 304 677 c 0,50,51
 382.666666667 677 382.666666667 677 428 653 c 1,52,-1
 427 653 l 1,53,54
 470.675675676 628.432432432 470.675675676 628.432432432 487.337837838 606.216216216 c 0,55,56
 521 561.333333333 521 561.333333333 521 497.666666667 c 128,-1,57
 521 434 521 434 467 380 c 1,25,26
EndSplineSet
EndChar

StartChar: C
Encoding: 67 67 52
Width: 688
GlyphClass: 1
Flags: W
LayerCount: 2
Fore
SplineSet
440 107 m 0,0,1
 527.333333333 107 527.333333333 107 582 230 c 1,2,-1
 654 205 l 1,3,4
 611.234375 106.453125 611.234375 106.453125 535 52 c 0,5,6
 467.8 4 467.8 4 392.4 4 c 128,-1,7
 317 4 317 4 253.5 28.5 c 128,-1,8
 190 53 190 53 139 97.5 c 128,-1,9
 88 142 88 142 56.5 203.5 c 128,-1,10
 25 265 25 265 25 342 c 128,-1,11
 25 419 25 419 53 483 c 128,-1,12
 81 547 81 547 129.5 592 c 0,13,14
 230.811111111 686 230.811111111 686 383 686 c 0,15,16
 475.052631579 686 475.052631579 686 579.5 623 c 0,17,18
 611 604 611 604 644 583 c 1,19,-1
 572 424 l 1,20,21
 449.777777778 600 449.777777778 600 337 600 c 0,22,23
 268.346153846 600 268.346153846 600 207 545 c 0,24,25
 162 503.461538462 162 503.461538462 162 412 c 0,26,27
 162 304.371428571 162 304.371428571 235 198 c 0,28,29
 257 166 257 166 293 143 c 128,-1,30
 329 120 329 120 364 113 c 1,31,-1
 363 114 l 1,32,33
 398 107 398 107 440 107 c 0,0,1
EndSplineSet
EndChar

StartChar: A
Encoding: 65 65 53
Width: 636
GlyphClass: 1
Flags: W
LayerCount: 2
Fore
SplineSet
556 102 m 1,0,-1
 556 101 l 1,1,-1
 556 102 l 1,0,-1
-8 72 m 1,2,3
 54.5 87 54.5 87 63.25 87 c 128,-1,4
 72 87 72 87 74 89 c 1,5,-1
 223 497 l 1,6,7
 223 497 223 497 191 590 c 1,8,9
 149 584 149 584 141 584 c 1,10,-1
 82 643 l 1,11,12
 165.396226415 660.169811321 165.396226415 660.169811321 176.047169811 664.627358491 c 0,13,14
 186.698113208 669.08490566 186.698113208 669.08490566 208 678 c 1,15,16
 232.5 692 232.5 692 262.25 692 c 128,-1,17
 292 692 292 692 305 666 c 1,18,-1
 548 117 l 1,19,20
 548 117 548 117 556 101 c 1,21,22
 562 95 562 95 575 90 c 2,23,-1
 624 75 l 1,24,-1
 625 10 l 1,25,-1
 342 10 l 1,26,-1
 342 88 l 1,27,28
 390.555555556 82.8888888889 390.555555556 82.8888888889 392.611111111 83.4027777778 c 2,29,30
 392.611111111 83.4027777778 392.611111111 83.4027777778 411 88 c 1,31,32
 413 92 413 92 415 90 c 1,33,34
 414 94 414 94 412.5 97.375 c 2,35,36
 412.5 97.375 412.5 97.375 395.25 136.1875 c 128,-1,37
 378 175 378 175 363 210 c 1,38,-1
 213 210 l 1,39,40
 201 175 201 175 191 148.5 c 128,-1,41
 181 122 181 122 167 84 c 1,42,43
 195.219512195 79.6585365854 195.219512195 79.6585365854 228 82 c 1,44,-1
 227 10 l 1,45,-1
 -8 10 l 1,46,-1
 -8 72 l 1,2,3
348 280 m 1,47,48
 348 280 348 280 277 431 c 1,49,-1
 219 279 l 1,50,51
 251 279 251 279 282 279.5 c 128,-1,52
 313 280 313 280 348 280 c 1,47,48
EndSplineSet
EndChar

